<svg xmlns="http://www.w3.org/2000/svg" width="1024" height="1024" viewBox="0 0 1024 1024" version="1.1">
	<path d="M 832.500 329.218 C 830.850 329.771, 827.250 331.305, 824.500 332.627 C 821.750 333.949, 818.375 335.030, 817 335.028 C 815.625 335.026, 812.542 336.144, 810.148 337.512 C 807.754 338.880, 804.936 340, 803.884 340 C 802.833 340, 801.191 340.406, 800.236 340.903 C 799.281 341.399, 796.475 342.353, 794 343.023 C 791.525 343.692, 787.360 345.341, 784.744 346.686 C 782.129 348.031, 779.173 348.872, 778.177 348.556 C 776.350 347.976, 751.200 356.344, 744.704 359.693 C 737.152 363.587, 734.331 364.786, 730 365.946 C 727.525 366.609, 724.226 367.792, 722.669 368.575 C 721.112 369.359, 719.213 370, 718.449 370 C 717.686 370, 715.458 370.900, 713.500 372 C 711.542 373.100, 709.165 374.005, 708.220 374.012 C 707.274 374.019, 704.542 375.144, 702.148 376.512 C 699.754 377.880, 696.936 379, 695.884 379 C 694.833 379, 693.191 379.406, 692.236 379.903 C 691.281 380.399, 688.475 381.380, 686 382.083 C 683.525 382.786, 679.572 384.405, 677.215 385.681 C 674.858 386.956, 672.036 388, 670.945 388 C 669.853 388, 667.178 389.125, 665 390.500 C 662.822 391.875, 660.144 393, 659.050 393 C 657.956 393, 655.458 393.900, 653.500 395 C 651.542 396.100, 649.252 397, 648.412 397 C 647.572 397, 644.870 398.125, 642.407 399.500 C 639.944 400.875, 637.158 402.005, 636.215 402.012 C 635.272 402.019, 632.542 403.144, 630.148 404.512 C 627.754 405.880, 624.955 407, 623.928 407 C 622.901 407, 620.458 407.900, 618.500 409 C 616.542 410.100, 614.228 411, 613.358 411 C 612.488 411, 608.860 412.575, 605.296 414.500 C 601.732 416.425, 598.198 418, 597.442 418 C 596.687 418, 592.083 420.025, 587.212 422.500 C 582.341 424.975, 577.674 427, 576.841 427 C 574.805 427, 546.372 441.334, 543.654 443.731 C 542.469 444.776, 539.620 446.442, 537.323 447.434 C 535.026 448.426, 531.904 450.534, 530.386 452.119 C 528.868 453.703, 527.105 455, 526.468 455 C 525.831 455, 524.495 455.900, 523.500 457 C 520.568 460.240, 516.290 458.001, 514.572 452.328 C 513.793 449.752, 506.588 443, 504.620 443 C 503.863 443, 502.709 442.354, 502.054 441.565 C 500.395 439.566, 493.330 436, 491.028 436 C 489.978 436, 488.840 435.550, 488.500 435 C 488.160 434.450, 484.871 434.007, 481.191 434.015 C 452.960 434.076, 428.874 465.191, 440.070 487.137 C 441.208 489.368, 441.996 491.314, 441.820 491.461 C 439.996 492.988, 436.324 494, 432.607 494 C 418.929 494, 392 517.002, 392 528.685 C 392 529.738, 391.568 531.032, 391.041 531.559 C 390.513 532.087, 389.951 536.789, 389.791 542.009 L 389.500 551.500 386 551.821 C 384.075 551.998, 382.072 552.561, 381.550 553.071 C 381.027 553.582, 379.772 554, 378.760 554 C 376.083 554, 369.878 557.400, 367.076 560.403 C 365.742 561.831, 364.141 563, 363.517 563 C 362.893 563, 353.859 571.585, 343.441 582.078 C 325.042 600.611, 324.228 601.286, 315 605.666 C 309.775 608.146, 304.600 610.997, 303.500 612 C 302.400 613.004, 297.363 615.892, 292.306 618.418 C 287.249 620.944, 282.853 623.429, 282.536 623.942 C 279.214 629.318, 270.089 629.099, 264.103 623.500 C 261.457 621.025, 258.855 619, 258.321 619 C 257.786 619, 256.292 617.875, 255 616.500 C 253.708 615.125, 251.974 614, 251.147 614 C 249.137 614, 243.135 612.073, 239.846 610.373 C 236.004 608.386, 214.097 608.460, 211.441 610.468 C 210.374 611.276, 208.576 611.951, 207.446 611.968 C 205.144 612.004, 194.688 616.920, 194.158 618.217 C 193.970 618.677, 192.170 619.903, 190.158 620.942 C 184.028 624.107, 173 637.935, 173 642.456 C 173 643.240, 172.550 644.160, 172 644.500 C 171.450 644.840, 170.986 646.329, 170.968 647.809 C 170.951 649.289, 170.276 651.374, 169.468 652.441 C 168.476 653.753, 168 656.850, 168 662 C 168 667.150, 168.476 670.247, 169.468 671.559 C 170.276 672.626, 170.951 674.861, 170.968 676.525 C 171.086 687.743, 192.737 711.948, 202.691 711.991 C 203.896 711.996, 205.160 712.450, 205.500 713 C 205.840 713.550, 207.329 714.014, 208.809 714.032 C 210.289 714.049, 212.374 714.724, 213.441 715.532 C 216.201 717.619, 236.799 717.619, 239.559 715.532 C 240.626 714.724, 242.711 714.049, 244.191 714.032 C 245.671 714.014, 247.160 713.550, 247.500 713 C 247.840 712.450, 249.147 712, 250.404 712 C 251.661 712, 253.505 711.100, 254.500 710 C 255.495 708.900, 256.963 708, 257.762 708 C 263.752 708, 281.943 682.894, 282.032 674.504 C 282.049 672.852, 282.724 670.626, 283.532 669.559 C 285.381 667.114, 285.442 659.081, 283.630 656.473 C 282.877 655.388, 282.024 652.925, 281.735 651 C 281.445 649.075, 280.893 646.521, 280.507 645.324 C 279.711 642.855, 283.024 640.276, 295.101 633.966 C 298.821 632.023, 302.683 629.750, 303.682 628.917 C 304.682 628.083, 309.550 625.419, 314.500 622.997 C 319.450 620.575, 324.030 617.868, 324.678 616.981 C 325.326 616.093, 327.801 614.791, 330.178 614.086 C 332.555 613.382, 335.281 612.399, 336.236 611.903 C 337.191 611.406, 339.918 611, 342.295 611 C 344.673 611, 347.491 610.339, 348.559 609.532 C 349.626 608.724, 351.872 608.049, 353.550 608.032 C 355.227 608.014, 357.027 607.591, 357.550 607.092 C 358.072 606.593, 360.750 605.942, 363.500 605.646 C 374.119 604.503, 380.053 603.347, 381.203 602.197 C 381.861 601.539, 383.797 601, 385.504 601 C 388.942 601, 399.029 596.417, 400.331 594.263 C 400.788 593.508, 402.218 592.487, 403.509 591.997 C 404.800 591.506, 406.643 589.393, 407.604 587.302 C 409.925 582.254, 409.699 582.382, 412.254 584.672 C 415.556 587.632, 423.929 591.995, 426.376 592.032 C 427.544 592.049, 429.374 592.724, 430.441 593.532 C 431.878 594.618, 435.273 595, 443.500 595 C 451.727 595, 455.122 594.618, 456.559 593.532 C 457.626 592.724, 459.750 592.049, 461.279 592.032 C 466.309 591.974, 475.200 586.462, 482.975 578.579 C 489.824 571.634, 493 569.526, 493 571.923 C 493 581.530, 530.582 593.322, 539.559 586.532 C 540.626 585.724, 542.256 585.049, 543.181 585.032 C 547.108 584.957, 559.114 575.614, 561.694 570.624 C 562.555 568.960, 563.876 566.981, 564.630 566.227 C 565.383 565.474, 566 564.058, 566 563.082 C 566 562.106, 566.664 559.977, 567.475 558.351 C 570.232 552.823, 568.779 541.859, 564.001 532.138 C 561.741 527.538, 560.029 523.684, 560.196 523.573 C 560.363 523.462, 562.525 522.744, 565 521.977 C 570.872 520.158, 593.223 509.132, 599.156 505.127 C 601.705 503.407, 604.218 502, 604.740 502 C 605.263 502, 606.505 501.100, 607.500 500 C 608.495 498.900, 609.881 498, 610.578 498 C 611.276 498, 613.184 496.875, 614.818 495.500 C 616.452 494.125, 618.217 493, 618.739 493 C 619.262 493, 620.533 492.068, 621.564 490.929 C 622.595 489.790, 625.702 487.819, 628.469 486.549 C 631.236 485.279, 634.400 483.234, 635.500 482.005 C 636.600 480.776, 638.400 479.370, 639.500 478.881 C 640.600 478.392, 643.525 476.421, 646 474.500 C 648.475 472.579, 651.625 470.527, 653 469.940 C 654.375 469.353, 656.654 467.664, 658.064 466.186 C 659.475 464.709, 662.153 462.600, 664.016 461.500 C 670.184 457.858, 670.971 457.336, 672.822 455.661 C 673.831 454.748, 675.116 454, 675.675 454 C 676.235 454, 678.251 452.538, 680.154 450.750 C 682.058 448.962, 685.142 446.600, 687.009 445.500 C 688.876 444.400, 691.249 442.990, 692.283 442.367 C 693.317 441.744, 695.610 439.832, 697.379 438.117 C 699.148 436.403, 700.969 435, 701.426 435 C 701.884 435, 704.001 433.425, 706.132 431.500 C 708.262 429.575, 710.512 428, 711.132 428 C 711.751 428, 713.981 426.538, 716.087 424.750 C 718.193 422.962, 721.979 419.925, 724.500 418 C 727.021 416.075, 730.807 413.038, 732.913 411.250 C 735.019 409.462, 737.223 408, 737.810 408 C 738.398 408, 741.043 406.217, 743.689 404.038 C 753.866 395.655, 755.271 394.602, 758.828 392.696 C 762.090 390.948, 771.905 383.339, 796.781 363.274 C 801.026 359.849, 806.075 355.961, 808 354.633 C 809.925 353.305, 813.051 350.594, 814.946 348.609 C 816.842 346.624, 818.812 345, 819.325 345 C 819.838 345, 821.969 343.538, 824.060 341.750 C 827.726 338.617, 833.440 334.265, 837.403 331.589 C 841.299 328.957, 838.016 327.370, 832.500 329.218 M 773.488 362.434 C 772.395 363.260, 770.514 363.951, 769.309 363.968 C 768.104 363.986, 766.840 364.450, 766.500 365 C 766.160 365.550, 764.799 366, 763.476 366 C 762.153 366, 759.056 367.125, 756.593 368.500 C 754.130 369.875, 750.978 371, 749.588 371 C 748.198 371, 745.458 371.900, 743.500 373 C 741.542 374.100, 739.099 375, 738.072 375 C 737.045 375, 734.246 376.120, 731.852 377.488 C 729.458 378.856, 726.728 379.981, 725.785 379.988 C 724.842 379.995, 722.056 381.125, 719.593 382.500 C 717.130 383.875, 714.216 385, 713.117 385 C 712.017 385, 710.840 385.450, 710.500 386 C 710.160 386.550, 708.961 387, 707.836 387 C 706.711 387, 703.551 388.125, 700.813 389.500 C 698.076 390.875, 695.401 392, 694.870 392 C 694.338 392, 692.041 392.900, 689.764 394 C 687.487 395.100, 685.058 396, 684.365 396 C 683.672 396, 680.990 397.125, 678.404 398.500 C 675.818 399.875, 673.121 401, 672.412 401 C 671.702 401, 668.057 402.573, 664.311 404.495 C 660.565 406.417, 656.825 408.001, 656 408.014 C 655.175 408.027, 651.408 409.604, 647.630 411.519 C 643.851 413.433, 640.230 415, 639.584 415 C 638.938 415, 632.617 417.925, 625.538 421.500 C 618.459 425.075, 612.126 428, 611.464 428 C 609.844 428, 588.203 438.862, 587.474 440.041 C 587.157 440.554, 583.659 442.576, 579.699 444.534 C 575.740 446.492, 570.475 449.646, 568 451.543 C 565.525 453.440, 562.375 455.469, 561 456.051 C 553.284 459.320, 543 473.117, 543 480.201 C 543 494.364, 564.310 501.428, 581.236 492.877 C 582.191 492.395, 583.838 492, 584.894 492 C 585.951 492, 589.732 490.425, 593.296 488.500 C 596.860 486.575, 600.672 485, 601.766 485 C 602.860 485, 604.373 484.254, 605.128 483.343 C 605.882 482.431, 609.705 480.184, 613.623 478.348 C 617.541 476.513, 621.324 474.314, 622.031 473.462 C 622.738 472.611, 625.623 470.859, 628.443 469.569 C 631.262 468.279, 634.171 466.499, 634.907 465.612 C 635.643 464.725, 636.795 464, 637.467 464 C 638.140 464, 639.505 463.100, 640.500 462 C 641.495 460.900, 642.827 460, 643.459 460 C 644.091 460, 646.134 458.425, 648 456.500 C 649.866 454.575, 651.802 453, 652.302 453 C 652.802 453, 654.548 451.875, 656.182 450.500 C 657.816 449.125, 659.710 448, 660.390 448 C 661.070 448, 662.948 446.605, 664.563 444.899 C 666.178 443.194, 668.400 441.389, 669.500 440.887 C 670.600 440.386, 673.975 438.182, 677 435.990 C 680.025 433.797, 682.974 432.003, 683.554 432.002 C 684.133 432.001, 686.134 430.425, 688 428.500 C 689.866 426.575, 691.891 425, 692.500 425 C 693.109 425, 695.134 423.425, 697 421.500 C 698.866 419.575, 700.802 418, 701.302 418 C 701.802 418, 703.548 416.875, 705.182 415.500 C 706.816 414.125, 708.724 413, 709.422 413 C 710.119 413, 711.505 412.100, 712.500 411 C 713.495 409.900, 714.781 409, 715.357 409 C 715.933 409, 717.852 407.597, 719.621 405.883 C 721.390 404.168, 723.709 402.256, 724.775 401.633 C 729.217 399.037, 735.527 394.593, 737.919 392.374 C 739.327 391.068, 740.977 390, 741.585 390 C 742.193 390, 743.547 389.042, 744.595 387.870 C 746.359 385.898, 751.595 382.071, 756.237 379.361 C 757.311 378.734, 759.834 376.646, 761.844 374.721 C 763.855 372.796, 766.850 370.539, 768.500 369.705 C 770.150 368.872, 772.561 367.054, 773.857 365.666 C 776.708 362.615, 776.433 360.208, 773.488 362.434 M 467.500 449.600 C 453.829 456.569, 449.014 467.502, 452.513 483.632 C 456.433 501.704, 503 507.087, 503 489.468 C 503 488.831, 503.900 487.495, 505 486.500 C 506.100 485.505, 507.014 483.747, 507.032 482.595 C 507.049 481.443, 507.724 479.626, 508.532 478.559 C 509.339 477.491, 510 475.440, 510 474 C 510 472.560, 509.339 470.509, 508.532 469.441 C 507.724 468.374, 507.049 466.782, 507.032 465.904 C 506.768 452.644, 481.761 442.331, 467.500 449.600 M 425.228 509.921 C 415.257 515.009, 405 527.101, 405 533.769 C 405 535.336, 404.339 537.491, 403.532 538.559 C 401.635 541.066, 401.607 545.098, 403.468 547.559 C 404.276 548.626, 404.951 550.874, 404.968 552.554 C 405.151 570.094, 442.122 590.542, 455.441 580.468 C 456.509 579.661, 458.202 579, 459.205 579 C 461.125 579, 464.319 577.448, 467.257 575.089 C 468.223 574.313, 470.014 573.179, 471.237 572.569 C 472.460 571.959, 473.969 570.440, 474.591 569.193 C 475.213 567.946, 476.612 565.929, 477.699 564.713 C 478.787 563.496, 480.271 560.925, 480.998 559 C 481.726 557.075, 482.698 555.072, 483.160 554.550 C 484.353 553.200, 484.209 534.247, 483 533.500 C 482.450 533.160, 482 532.078, 482 531.095 C 482 525.265, 473.740 516.229, 462.600 509.872 C 455.615 505.886, 433.079 505.916, 425.228 509.921 M 513.745 524.383 C 503.844 528.771, 492.250 550.947, 498 554.500 C 498.550 554.840, 499 556.353, 499 557.863 C 499 559.687, 500.174 561.746, 502.500 564 C 504.425 565.866, 506.012 567.867, 506.027 568.446 C 506.064 569.931, 516.424 575, 519.420 575 C 520.787 575, 523.052 575.522, 524.452 576.160 C 531.883 579.546, 549.503 569.551, 552.530 560.235 C 553.470 557.339, 554.636 554.725, 555.120 554.426 C 556.550 553.542, 556.062 544.666, 554.468 542.559 C 553.661 541.491, 553 539.903, 553 539.030 C 553 537.345, 542.034 526.342, 538.264 524.244 C 535.371 522.635, 517.461 522.737, 513.745 524.383 M 375.898 567.474 C 374.029 568.835, 371.375 570.433, 370 571.025 C 365.886 572.795, 345 594.171, 345 596.611 C 345 598.863, 353.079 599.070, 355.450 596.878 C 355.972 596.395, 358.470 596, 361 596 C 363.530 596, 366.139 595.461, 366.797 594.803 C 367.455 594.145, 370.358 593.269, 373.247 592.856 C 388.563 590.669, 392.102 589.184, 394.853 583.788 L 396.721 580.125 393.687 574.003 C 389.251 565.053, 382.583 562.606, 375.898 567.474 M 214.500 635 C 214.160 635.550, 212.883 636, 211.662 636 C 209.421 636, 198.789 646.162, 196.244 650.736 C 194.018 654.739, 194.585 673.314, 197 675.500 C 198.100 676.495, 199 677.734, 199 678.252 C 199 678.769, 200.800 681.238, 203 683.737 C 205.200 686.237, 207 688.668, 207 689.141 C 207 689.613, 208.548 690, 210.441 690 C 212.334 690, 214.160 690.450, 214.500 691 C 214.848 691.563, 219.657 692, 225.500 692 C 231.343 692, 236.152 691.563, 236.500 691 C 236.840 690.450, 238.147 690, 239.404 690 C 240.661 690, 242.505 689.100, 243.500 688 C 244.495 686.900, 245.803 685.998, 246.405 685.995 C 248.497 685.986, 254.921 679.161, 255.493 676.339 C 255.810 674.777, 256.504 672.118, 257.035 670.429 C 257.566 668.740, 258 663.386, 258 658.531 L 258 649.704 252.250 644.348 C 242.484 635.252, 218.079 629.209, 214.500 635" stroke="none" fill="#111111" fill-rule="evenodd"/>
</svg>