<svg xmlns="http://www.w3.org/2000/svg" width="1024" height="1024" viewBox="0 0 1024 1024" version="1.1">
	<path d="M 222.473 348.044 C 222.118 348.619, 223.666 351.084, 225.914 353.522 C 228.161 355.960, 230.012 358.528, 230.026 359.228 C 230.053 360.571, 236.610 364, 239.152 364 C 239.975 364, 244.126 365.800, 248.378 368 C 252.629 370.200, 256.992 372, 258.074 372 C 259.155 372, 261.822 373.125, 264 374.500 C 266.178 375.875, 268.618 377, 269.421 377 C 270.225 377, 271.142 377.422, 271.461 377.937 C 272.314 379.317, 278.027 382, 280.113 382 C 283.094 382, 288.797 385.346, 289.913 387.750 C 290.487 388.988, 291.563 390, 292.304 390 C 293.045 390, 294.708 391.125, 296 392.500 C 297.292 393.875, 298.883 395, 299.537 395 C 300.190 395, 302.424 396.350, 304.500 398 C 306.576 399.650, 308.793 401, 309.425 401 C 310.058 401, 312.791 403.250, 315.500 406 C 318.209 408.750, 320.902 411, 321.484 411 C 322.951 411, 339 427.260, 339 428.747 C 339 429.409, 340.565 431.375, 342.477 433.115 C 344.389 434.856, 346.244 437.193, 346.598 438.310 C 346.953 439.427, 348.670 442.627, 350.414 445.421 C 360.254 461.180, 365.892 496.738, 360.106 506.544 C 357.822 510.415, 357.924 514.127, 360.262 512.209 C 366.044 507.464, 423.654 501.410, 419.516 505.982 C 418.682 506.904, 418 508.507, 418 509.545 C 418 512.729, 414.801 520.358, 412.336 523.055 C 409.837 525.788, 408.852 537.173, 411 538.500 C 411.550 538.840, 412 540.631, 412 542.479 C 412 552.302, 424.460 567.797, 434.049 569.899 C 437.047 570.555, 441.300 571.928, 443.500 572.949 C 445.700 573.970, 448.850 575.369, 450.500 576.059 C 454.413 577.694, 464.662 578.356, 465.484 577.026 C 465.833 576.462, 468.090 576, 470.500 576 C 472.910 576, 475.153 575.561, 475.485 575.024 C 475.817 574.488, 478.489 572.455, 481.423 570.507 C 484.357 568.560, 488.855 564.724, 491.419 561.983 C 493.983 559.242, 496.748 557, 497.565 557 C 498.381 557, 499.461 555.919, 499.963 554.597 C 500.466 553.276, 501.354 551.899, 501.938 551.538 C 502.522 551.177, 503 550.009, 503 548.941 C 503 546.372, 525.116 546.017, 528.441 548.532 C 529.760 549.529, 532.866 550, 538.132 550 C 542.395 550, 546.160 550.450, 546.500 551 C 546.840 551.550, 550.579 552.014, 554.809 552.032 C 559.981 552.053, 563.136 552.544, 564.441 553.532 C 565.575 554.390, 568.564 555, 571.632 555 C 574.520 555, 577.160 555.450, 577.500 556 C 577.840 556.550, 580.511 557, 583.437 557 C 586.944 557, 589.179 557.511, 590 558.500 C 590.685 559.325, 591.752 560.003, 592.372 560.006 C 592.993 560.010, 596.425 561.579, 600 563.494 C 603.575 565.409, 607.175 567.257, 608 567.601 C 613.868 570.046, 628.168 577.498, 629.065 578.578 C 629.668 579.305, 636.231 582.895, 643.648 586.555 C 654.607 591.963, 656.999 593.518, 656.414 594.855 C 656.019 595.760, 655.489 597.967, 655.237 599.759 C 654.985 601.552, 654.379 603.266, 653.890 603.568 C 652.652 604.333, 652.756 626.731, 654 627.500 C 654.550 627.840, 655 629.634, 655 631.486 C 655 635.362, 660.752 647.030, 664.865 651.500 C 666.384 653.150, 668.134 655.701, 668.754 657.168 C 669.456 658.828, 671.823 660.810, 675.022 662.417 C 677.849 663.837, 682.038 666.522, 684.331 668.384 C 686.624 670.246, 689.957 672.081, 691.739 672.462 C 693.520 672.842, 695.234 673.569, 695.548 674.077 C 695.861 674.585, 697.329 675.014, 698.809 675.032 C 700.289 675.049, 702.374 675.724, 703.441 676.532 C 704.927 677.656, 708.575 678, 719 678 C 729.425 678, 733.073 677.656, 734.559 676.532 C 735.626 675.724, 737.682 675.049, 739.128 675.032 C 740.573 675.014, 742.315 674.325, 743 673.500 C 743.685 672.675, 745.461 672, 746.948 672 C 748.539 672, 750.618 670.971, 752 669.500 C 753.292 668.125, 755.068 667, 755.946 667 C 762.021 667, 782 639.032, 782 630.529 C 782 628.798, 782.661 626.509, 783.468 625.441 C 785.531 622.713, 785.555 609.706, 783.500 608 C 782.590 607.245, 782 605.055, 782 602.437 C 782 600.061, 781.550 597.840, 781 597.500 C 780.450 597.160, 780 595.808, 780 594.495 C 780 591.500, 773.558 580.369, 771.048 579.025 C 770.017 578.474, 766.401 575.318, 763.012 572.012 C 759.622 568.705, 756.286 566, 755.599 566 C 754.911 566, 753.292 564.875, 752 563.500 C 750.703 562.119, 748.498 560.986, 747.076 560.968 C 745.659 560.951, 743.626 560.276, 742.559 559.468 C 741.491 558.661, 739.380 558, 737.868 558 C 736.355 558, 734.840 557.550, 734.500 557 C 734.129 556.399, 727.343 556, 717.500 556 C 707.657 556, 700.871 556.399, 700.500 557 C 700.160 557.550, 698.816 558, 697.514 558 C 694.801 558, 682.544 564.140, 679.446 567.051 C 678.305 568.123, 676.931 569, 676.394 569 C 675.856 569, 673.429 571.025, 671 573.500 C 668.571 575.975, 666.106 578, 665.523 578 C 663.850 578, 648.963 570.302, 646.617 568.223 C 645.453 567.192, 641.039 564.694, 636.808 562.672 C 632.577 560.651, 628.821 558.519, 628.461 557.936 C 628.100 557.354, 626.837 556.455, 625.653 555.941 C 624.469 555.426, 622.825 554.579, 622 554.060 C 621.175 553.540, 617.459 551.626, 613.742 549.807 C 602.738 544.423, 602 543.958, 602 542.421 C 602 541.612, 600.875 540.523, 599.500 540 C 598.125 539.477, 597 538.352, 597 537.500 C 597 536.648, 595.875 535.523, 594.500 535 C 593.125 534.477, 592 533.544, 592 532.927 C 592 532.310, 587.725 527.393, 582.500 522 C 577.275 516.607, 573 511.688, 573 511.069 C 573 510.450, 569.625 506.579, 565.500 502.468 C 561.375 498.356, 558 494.416, 558 493.712 C 558 493.008, 555.525 489.987, 552.500 487 C 546.565 481.138, 545.749 478.442, 549.015 475.486 C 556.680 468.549, 561.729 440.312, 556.532 433.441 C 555.724 432.374, 555.049 430.354, 555.032 428.953 C 555.011 427.326, 553.555 424.995, 551 422.500 C 548.800 420.352, 547 417.999, 547 417.272 C 547 416.545, 545.969 415.559, 544.709 415.079 C 543.449 414.600, 541.824 413.493, 541.098 412.618 C 538.946 410.025, 525.989 404, 522.566 404 C 520.825 404, 518.924 403.524, 518.341 402.941 C 516.622 401.222, 507.462 400.935, 505.351 402.534 C 504.333 403.305, 501.925 403.952, 500 403.972 C 496.030 404.012, 486.829 408.283, 482.051 412.304 C 480.288 413.787, 478.212 415, 477.437 415 C 476.661 415, 475.401 416.462, 474.637 418.250 C 473.872 420.038, 471.841 422.822, 470.123 424.437 C 468.405 426.052, 467 427.965, 467 428.687 C 467 429.409, 466.438 429.989, 465.750 429.975 C 464.260 429.946, 461 423.745, 461 420.939 C 461 419.851, 459.875 417.178, 458.500 415 C 457.125 412.822, 456 410.235, 456 409.251 C 456 408.267, 454.200 403.879, 452 399.500 C 449.800 395.121, 448 390.153, 448 388.460 C 448 386.767, 447.339 384.509, 446.532 383.441 C 445.724 382.374, 445.049 380.262, 445.032 378.750 C 444.992 375.342, 443.647 375.277, 439.818 378.500 C 438.184 379.875, 436.294 381, 435.619 381 C 434.945 381, 432.895 382.545, 431.064 384.434 C 429.234 386.322, 425.658 388.807, 423.118 389.955 C 420.578 391.103, 417.825 392.446, 417 392.938 C 416.175 393.431, 413.832 394.558, 411.792 395.444 C 409.753 396.329, 407.814 397.491, 407.483 398.027 C 407.153 398.562, 405.093 399, 402.906 399 C 400.719 399, 397.822 399.725, 396.469 400.612 C 394.826 401.689, 392.928 402.023, 390.754 401.619 C 388.722 401.241, 386.425 401.575, 384.636 402.507 C 380.767 404.524, 363.296 404.539, 360.641 402.528 C 359.345 401.547, 357.310 401.294, 353.922 401.696 C 350.348 402.119, 348.403 401.839, 346.567 400.636 C 345.194 399.736, 342.310 399, 340.158 399 C 337.900 399, 335.718 398.366, 335 397.500 C 334.315 396.675, 332.487 396, 330.937 396 C 329.386 396, 327.840 395.550, 327.500 395 C 327.160 394.450, 325.671 393.986, 324.191 393.968 C 322.711 393.951, 320.626 393.276, 319.559 392.468 C 318.491 391.661, 316.691 390.995, 315.559 390.988 C 314.426 390.981, 311.542 389.856, 309.148 388.488 C 306.754 387.120, 304.049 386, 303.135 386 C 300.981 386, 278.393 374.686, 275.624 372.220 C 274.456 371.180, 271.700 369.514, 269.500 368.518 C 267.300 367.521, 264.228 365.647, 262.673 364.353 C 261.119 363.059, 259.285 362, 258.598 362 C 257.911 362, 256.292 360.875, 255 359.500 C 253.708 358.125, 252.139 357, 251.513 357 C 250.887 357, 249.052 355.611, 247.437 353.914 C 241.810 348.002, 224.949 344.038, 222.473 348.044 M 416.093 408.574 C 413.669 409.908, 410.893 411, 409.924 411 C 408.955 411, 406.888 411.630, 405.331 412.400 C 401.127 414.479, 395.738 415.996, 392.429 416.032 C 390.818 416.049, 388.626 416.724, 387.559 417.532 C 386.491 418.339, 384.016 419.014, 382.059 419.032 C 380.101 419.049, 377.626 419.724, 376.559 420.532 C 375.432 421.384, 372.443 422, 369.431 422 C 363.332 422, 360.838 423.909, 362.810 427.068 C 363.465 428.116, 364 430.018, 364 431.295 C 364 432.573, 364.661 434.491, 365.468 435.559 C 366.276 436.626, 366.951 438.781, 366.968 440.346 C 367.009 443.979, 369.839 453.782, 371.066 454.541 C 371.580 454.858, 372.003 457.004, 372.006 459.309 C 372.010 461.614, 372.685 464.789, 373.506 466.364 C 374.328 467.940, 375 471.187, 375 473.580 C 375 483.413, 380.691 487.869, 387.528 483.390 C 388.966 482.448, 390.950 482.022, 392.309 482.363 C 393.647 482.699, 395.543 482.308, 396.780 481.442 C 398.552 480.201, 399.283 480.160, 400.964 481.209 C 402.589 482.225, 403.400 482.231, 404.986 481.241 C 408.011 479.352, 422.420 479.596, 424.052 481.563 C 425.229 482.981, 425.431 482.981, 426.225 481.563 C 427.267 479.701, 467.367 479.167, 468.500 481 C 469.279 482.261, 471 482.307, 471 481.067 C 471 480.554, 469.988 479.826, 468.750 479.449 C 464.586 478.180, 457.402 468.265, 459.283 466.383 C 460.190 465.477, 456.185 458, 454.794 458 C 452.395 458, 449.030 453.813, 449.989 452.021 C 451.127 449.895, 447.036 443.463, 443.915 442.473 C 442.330 441.970, 441.920 441.199, 442.268 439.378 C 442.523 438.044, 442.342 436.711, 441.866 436.417 C 441.390 436.123, 441 434.645, 441 433.132 C 441 429.841, 439.212 427.293, 436.581 426.834 C 434.556 426.482, 431.197 421.626, 431.073 418.872 C 431.033 417.977, 430.325 416.685, 429.500 416 C 428.675 415.315, 428 413.530, 428 412.033 C 428 406.084, 423.167 404.681, 416.093 408.574 M 505 417.500 C 504.315 418.325, 502.780 419, 501.589 419 C 496.366 419, 482 430.067, 482 434.090 C 482 435.006, 481.325 436.315, 480.500 437 C 476.341 440.452, 479.419 458.449, 485.038 463.535 C 486.117 464.511, 487 466.070, 487 467 C 487 469.075, 490.082 472, 492.270 472 C 493.156 472, 494.142 472.422, 494.461 472.937 C 497.294 477.521, 518.403 478.716, 525.079 474.669 C 533.265 469.708, 534.988 468.446, 534.994 467.405 C 534.997 466.803, 535.889 465.506, 536.975 464.523 C 550.697 452.104, 538.669 419, 520.435 419 C 519.230 419, 517.685 418.325, 517 417.500 C 516.213 416.552, 514.007 416, 511 416 C 507.993 416, 505.787 416.552, 505 417.500 M 490.500 493 C 489.658 494.362, 490.796 496, 492.584 496 C 493.390 496, 494.477 497.125, 495 498.500 C 495.523 499.875, 496.538 501, 497.257 501 C 498.880 501, 510 512.120, 510 513.744 C 510 514.396, 511.012 515.460, 512.250 516.109 C 513.487 516.758, 516.189 518.799, 518.253 520.644 C 520.317 522.490, 522.481 524, 523.063 524 C 523.644 524, 526.555 526.304, 529.532 529.119 C 535.021 534.310, 544.850 539.963, 548.500 540.028 C 549.600 540.048, 551.374 540.724, 552.441 541.532 C 558.162 545.859, 572 538.356, 572 530.927 C 572 526.169, 565.433 516, 562.360 516 C 561.650 516, 559.591 514.763, 557.785 513.250 C 553.277 509.476, 550.443 508, 547.705 508 C 546.427 508, 544.509 507.339, 543.441 506.532 C 542.374 505.724, 540.117 505.049, 538.427 505.032 C 536.737 505.014, 532.519 503.626, 529.053 501.948 C 524.497 499.741, 521.963 499.069, 519.901 499.522 C 518.049 499.929, 516.262 499.597, 514.802 498.574 C 513.566 497.708, 510.882 497, 508.837 497 C 506.791 497, 504.840 496.550, 504.500 496 C 504.160 495.450, 502.671 494.986, 501.191 494.968 C 499.711 494.951, 497.626 494.276, 496.559 493.468 C 494.319 491.774, 491.397 491.549, 490.500 493 M 450 501.782 C 449.175 502.063, 448.140 502.902, 447.700 503.647 C 447.260 504.391, 446.078 505, 445.073 505 C 444.067 505, 442.685 505.675, 442 506.500 C 441.315 507.325, 440.265 508, 439.665 508 C 438.189 508, 430 516.121, 430 517.586 C 430 518.229, 429.325 519.315, 428.500 520 C 427.506 520.825, 427 523.064, 427 526.636 C 427 529.601, 426.504 532.822, 425.897 533.793 C 424.618 535.842, 429.504 547.336, 432.998 550.499 C 434.099 551.495, 435 552.885, 435 553.588 C 435 558.157, 461.675 565.725, 465.235 562.165 C 465.876 561.524, 467.682 561, 469.250 561 C 474.448 561, 488 549.827, 488 545.542 C 488 544.829, 488.675 543.685, 489.500 543 C 490.624 542.067, 491 539.562, 491 533 C 491 526.438, 490.624 523.933, 489.500 523 C 488.675 522.315, 488 520.989, 488 520.052 C 488 519.115, 486.875 517.292, 485.500 516 C 484.125 514.708, 483 513.044, 483 512.301 C 483 511.558, 481.919 510.539, 480.597 510.037 C 479.276 509.534, 477.897 508.642, 477.534 508.054 C 475.770 505.200, 468.399 502.816, 461.781 502.959 C 458.086 503.039, 454.261 502.691, 453.281 502.187 C 452.302 501.683, 450.825 501.500, 450 501.782 M 706.683 584.715 C 705.482 585.383, 703.362 585.945, 701.971 585.965 C 689.738 586.136, 676.073 621.421, 685.083 629.575 C 686.228 630.611, 687.765 632.819, 688.498 634.480 C 690.391 638.768, 697.661 645.896, 700.825 646.566 C 702.296 646.877, 704.694 647.777, 706.154 648.566 C 709.951 650.617, 727.284 650.567, 729 648.500 C 729.685 647.675, 731.470 647, 732.967 647 C 734.465 647, 736.538 646.063, 737.575 644.917 C 738.611 643.772, 740.864 642.248, 742.581 641.531 C 746.243 640, 749.227 636.087, 750.992 630.500 C 751.687 628.300, 752.873 625.306, 753.627 623.846 C 756.430 618.425, 753.485 597, 749.937 597 C 749.500 597, 747.423 595.374, 745.321 593.386 C 743.220 591.399, 740.600 589.375, 739.500 588.889 C 738.400 588.402, 736.825 587.606, 736 587.118 C 731.511 584.466, 728.411 583.833, 719.108 583.675 C 712.623 583.564, 708.065 583.946, 706.683 584.715" stroke="none" fill="#111111" fill-rule="evenodd"/>
</svg>