<svg xmlns="http://www.w3.org/2000/svg" width="1024" height="1024" viewBox="0 0 1024 1024" version="1.1">
	<path d="M 224.750 346.755 C 222.122 347.343, 222.590 349.005, 227.082 355.027 C 231.352 360.752, 231.693 360.959, 248.500 368.005 C 265.406 375.093, 270.396 377.363, 273.166 379.225 C 274.632 380.210, 277.332 381.302, 279.166 381.651 C 283.986 382.568, 287.746 384.683, 289.606 387.521 C 290.499 388.884, 291.775 390, 292.441 390 C 293.107 390, 294.708 391.125, 296 392.500 C 297.292 393.875, 298.705 395, 299.141 395 C 303.897 395, 329.318 416.911, 341.664 431.652 C 356.223 449.035, 366.871 490.443, 360.621 505.372 C 357.970 511.705, 358.342 513.392, 361.975 511.513 C 372.464 506.089, 421.550 502.235, 418.980 507.038 C 418.441 508.045, 417.992 509.686, 417.983 510.684 C 417.974 511.683, 416.182 516.100, 414 520.500 C 410.018 528.531, 408.604 537.019, 411 538.500 C 411.550 538.840, 412 540.595, 412 542.399 C 412 551.548, 424.950 567.349, 434.630 570.013 C 437.309 570.750, 442.566 572.647, 446.314 574.227 C 462.408 581.015, 477.185 576.802, 492.453 561.072 C 494.627 558.833, 496.877 556.981, 497.453 556.958 C 498.520 556.915, 503 550.526, 503 549.047 C 503 546.851, 521.715 546.131, 526.685 548.136 C 529.296 549.189, 536.057 550.067, 555 551.810 C 559.125 552.189, 563.124 552.902, 563.886 553.393 C 564.649 553.885, 568.024 554.660, 571.386 555.116 C 587.496 557.302, 588.336 557.591, 608.500 567.895 C 659.407 593.909, 657.588 592.542, 654.476 602.437 C 648.975 619.926, 659.803 653.186, 673.740 661.609 C 675.258 662.526, 679.467 665.240, 683.094 667.638 C 686.721 670.037, 690.028 672, 690.443 672 C 690.858 672, 692.616 672.619, 694.349 673.375 C 708.845 679.703, 736.931 679.469, 743.433 672.967 C 743.965 672.435, 745.335 672, 746.477 672 C 747.620 672, 749.656 671.212, 751.001 670.250 C 752.346 669.288, 755.345 667.375, 757.665 666 C 765.715 661.229, 782 637.502, 782 630.544 C 782 629.279, 782.675 626.629, 783.500 624.654 C 785.418 620.063, 785.418 612.937, 783.500 608.346 C 782.675 606.371, 782 603.892, 782 602.837 C 782 592.630, 762.668 566, 755.258 566 C 754.737 566, 753.498 565.103, 752.505 564.006 C 748.604 559.695, 732.737 556.063, 717.654 556.029 C 698.465 555.986, 680.647 562.788, 670.459 574.046 C 666.546 578.369, 665.594 578.329, 656.274 573.461 C 643.621 566.851, 631.899 560.259, 628.908 558.070 C 627.483 557.027, 620.845 553.431, 614.158 550.079 C 607.471 546.727, 602 543.389, 602 542.661 C 602 541.933, 600.875 540.736, 599.500 540 C 598.125 539.264, 597 538.093, 597 537.398 C 597 536.703, 596.140 535.862, 595.089 535.528 C 594.039 535.195, 592.471 533.841, 591.605 532.520 C 590.739 531.198, 586.761 526.550, 582.765 522.190 C 578.769 517.831, 571.450 509.475, 566.500 503.623 C 561.550 497.771, 555.138 490.230, 552.250 486.865 C 546.747 480.453, 545.960 478.108, 548.578 475.935 C 552.467 472.708, 557.015 459.990, 558.406 448.452 C 559.466 439.670, 556.002 427.959, 550.567 421.942 C 548.749 419.930, 547.090 417.839, 546.881 417.297 C 545.582 413.932, 526.746 404, 521.663 404 C 520.418 404, 518.950 403.550, 518.401 403.001 C 513.527 398.127, 475 411.218, 475 417.748 C 475 418.182, 473.235 420.672, 471.079 423.282 C 468.922 425.892, 466.951 428.583, 466.699 429.263 C 465.895 431.430, 463.205 427.908, 461.146 421.993 C 460.094 418.972, 457.103 411.550, 454.499 405.500 C 451.895 399.450, 448.896 391.575, 447.836 388 C 444.653 377.274, 444.322 376.489, 443.093 376.764 C 441.346 377.156, 433.886 382.037, 430.882 384.753 C 426.873 388.379, 405.865 399, 402.702 399 C 401.161 399, 398.686 399.614, 397.200 400.364 C 389.915 404.044, 351.773 404.179, 346.037 400.545 C 345.232 400.035, 342.757 399.302, 340.537 398.916 C 338.316 398.530, 334.925 397.649, 333 396.958 C 331.075 396.266, 328.600 395.386, 327.500 395 C 326.400 394.614, 323.925 393.742, 322 393.062 C 320.075 392.381, 317.150 391.476, 315.500 391.049 C 308.854 389.333, 279.805 375.053, 267.602 367.504 C 262.708 364.477, 258.399 362, 258.026 362 C 257.653 362, 256.292 360.875, 255 359.500 C 253.708 358.125, 252.133 357, 251.500 357 C 250.867 357, 249.334 355.920, 248.095 354.601 C 243.798 350.028, 230.341 345.505, 224.750 346.755 M 418.500 407.634 C 408.055 411.670, 395.314 415.941, 393.634 415.969 C 392.608 415.986, 389.458 416.724, 386.634 417.608 C 383.810 418.493, 379.475 419.845, 377 420.613 C 374.525 421.381, 370.899 422.008, 368.941 422.005 C 362.359 421.996, 360.811 428.413, 365.548 436.077 C 365.909 436.662, 366.809 440.025, 367.546 443.550 C 368.284 447.076, 369.552 451.431, 370.366 453.230 C 371.179 455.028, 372.052 458.075, 372.306 460 C 372.863 464.230, 374.825 474.090, 376.145 479.296 C 377.506 484.663, 380.585 485.904, 386.900 483.633 C 392.970 481.450, 411.733 480.051, 424 480.867 C 425.375 480.958, 435.320 480.748, 446.100 480.401 C 460.461 479.938, 466.298 480.089, 467.936 480.966 C 469.165 481.624, 470.470 481.839, 470.836 481.444 C 471.201 481.049, 470.894 480.511, 470.153 480.247 C 465.524 478.602, 459 470.241, 459 465.954 C 459 463.293, 455.965 458, 454.439 458 C 452.620 458, 450 454.530, 450 452.122 C 450 448.944, 447.508 444.563, 444.626 442.675 C 442.683 441.402, 442.003 439.869, 441.464 435.555 C 440.848 430.624, 440.325 429.688, 436.391 426.464 C 433.979 424.488, 431.712 421.662, 431.354 420.185 C 430.995 418.708, 430.094 416.612, 429.351 415.527 C 428.608 414.443, 428 412.556, 428 411.334 C 428 410.113, 427 408.413, 425.777 407.557 C 423.133 405.704, 423.503 405.700, 418.500 407.634 M 504 417.676 C 502.075 418.527, 498.700 420.014, 496.500 420.980 C 491.391 423.224, 482 431.637, 482 433.970 C 482 434.952, 481.281 436.351, 480.403 437.080 C 477.991 439.082, 478.872 452.078, 481.821 458 C 485.833 466.056, 488.503 470.288, 490.016 470.993 C 490.832 471.373, 492.400 472.207, 493.500 472.845 C 515.150 485.403, 545.082 469.375, 542.699 446.500 C 541.388 433.907, 533.588 422.314, 524.858 419.980 C 522.461 419.339, 519.022 418.182, 517.216 417.408 C 513.036 415.616, 508.447 415.709, 504 417.676 M 490.558 492.906 C 489.684 494.320, 490.734 496, 492.492 496 C 493.247 496, 494.152 496.905, 494.503 498.011 C 494.855 499.117, 496.362 500.653, 497.852 501.424 C 500.712 502.903, 510 512.326, 510 513.749 C 510 514.208, 513.439 517.040, 517.642 520.042 C 521.846 523.044, 527.583 527.457, 530.392 529.848 C 538.565 536.807, 553.981 543.588, 559.142 542.495 C 566.016 541.040, 572 535.462, 572 530.510 C 572 526.813, 565.076 516, 562.710 516 C 562.192 516, 559.621 514.424, 556.997 512.498 C 554.372 510.571, 550.712 508.707, 548.863 508.355 C 547.013 508.003, 544.285 507.104, 542.800 506.357 C 541.314 505.611, 539.366 505, 538.470 505 C 537.574 505, 533.906 503.826, 530.319 502.391 C 526.732 500.956, 522.155 499.669, 520.148 499.533 C 518.142 499.396, 515.233 498.770, 513.685 498.142 C 512.137 497.514, 509.768 497, 508.421 497 C 507.075 497, 505.191 496.610, 504.236 496.134 C 498.240 493.144, 491.408 491.531, 490.558 492.906 M 448.037 503.455 C 447.332 504.305, 446.158 505, 445.428 505 C 443.693 505, 436.077 510.171, 433.412 513.159 C 424.366 523.299, 423.826 539.371, 432.190 549.508 C 433.548 551.153, 434.921 553.219, 435.240 554.098 C 436.386 557.252, 452.522 562.945, 460.429 562.985 C 470.591 563.037, 483.557 554.654, 488.482 544.849 C 496.377 529.130, 484.483 505.633, 467.592 503.577 C 454.215 501.949, 449.312 501.919, 448.037 503.455 M 702.500 585.582 C 686.219 589.926, 677.279 617.649, 687.292 632.741 C 695.501 645.114, 701.874 648.940, 715.631 649.756 C 738.973 651.140, 756.657 633.845, 754.526 611.717 C 752.464 590.313, 728.982 578.517, 702.500 585.582" stroke="none" fill="#111111" fill-rule="evenodd"/>
</svg>